<svg width="381" height="531" viewBox="0 0 381 531" fill="none" xmlns="http://www.w3.org/2000/svg">
<path fill-rule="evenodd" clip-rule="evenodd" d="M52.9617 225.478C52.9617 255.5 79 294 119 288.737C129.5 287.356 153.5 277 153.5 241C153.5 228.189 148.757 216.687 143.568 204.105C134.176 181.332 123.325 155.021 136.5 111C149.467 67.6765 199.465 18.8263 227.519 0C227.519 0 208.816 48.5982 255.573 121.277C267.859 140.375 283.16 159.567 298.805 179.192C342.699 234.249 389.312 292.718 379.737 362.114C367.958 447.488 308.263 481.058 283.273 491.905C290.76 477.755 295 461.623 295 444.5C295 388.443 249.557 343 193.5 343C137.443 343 92 388.443 92 444.5C92 463.116 97.0116 480.561 105.759 495.56C79.4647 485.084 54.0514 467.906 32.7002 440.915C-27.5632 364.734 5.16621 254.958 52.9617 225.478Z" fill="#FFA610"/>
<path fill-rule="evenodd" clip-rule="evenodd" d="M223.014 449.542L253.278 419.278L221.639 387.639L191.375 417.903L159.736 386.264L128.097 417.903L159.736 449.542L128.097 481.181L159.736 512.82L191.375 481.181L223.014 512.821L254.653 481.181L223.014 449.542Z" fill="#F6F6F8"/>
</svg>
